<?xml version="1.0" standalone="no"?>
<!DOCTYPE svg PUBLIC "-//W3C//DTD SVG 20010904//EN"
 "http://www.w3.org/TR/2001/REC-SVG-20010904/DTD/svg10.dtd">
<svg version="1.0" xmlns="http://www.w3.org/2000/svg"
 width="575.000000pt" height="332.000000pt" viewBox="0 0 575.000000 332.000000"
 preserveAspectRatio="xMidYMid meet">

<g transform="translate(0.000000,332.000000) scale(0.100000,-0.100000)"
fill="#d90429" stroke="none">
<path d="M784 3245 c-225 -49 -456 -231 -563 -443 -125 -248 -171 -419 -171
-630 0 -272 65 -427 260 -622 327 -326 814 -424 1312 -264 116 37 314 126 369
165 l31 22 -8 -24 c-18 -49 -8 -162 21 -230 58 -138 59 -141 59 -244 0 -83 -5
-114 -27 -181 -35 -103 -83 -183 -125 -207 -44 -26 -113 -43 -276 -66 -84 -12
-156 -29 -182 -42 -47 -22 -209 -187 -225 -228 -14 -34 13 -71 50 -71 23 0 42
14 93 68 96 105 115 112 383 137 329 30 370 46 460 181 42 63 125 221 155 294
l22 56 -34 59 c-73 127 -99 175 -95 175 3 0 45 -48 94 -108 158 -189 221 -291
208 -332 -10 -32 -88 -92 -191 -149 -128 -69 -200 -120 -214 -149 -14 -32 -12
-176 4 -245 19 -81 65 -129 105 -107 18 9 19 20 18 112 -2 91 0 106 20 134 32
45 98 76 298 139 286 91 345 130 345 226 0 55 -21 103 -101 230 -26 42 -56
100 -65 128 -16 49 -16 54 1 99 73 191 312 242 643 137 113 -36 243 -93 349
-152 l63 -35 -17 -36 c-62 -143 -155 -384 -181 -472 -58 -201 -65 -278 -33
-368 39 -114 86 -140 148 -82 l32 30 -26 56 c-21 47 -24 64 -19 107 13 94 120
284 269 477 l65 84 -27 41 c-45 66 -47 71 -20 50 49 -38 136 -110 205 -170
353 -307 773 -526 1221 -635 151 -37 159 -37 178 0 35 68 9 113 -80 136 -151
39 -354 141 -511 257 -167 123 -464 458 -480 541 -8 43 16 96 54 118 26 15
148 30 347 43 115 7 165 21 199 52 53 49 60 112 21 180 -14 23 -29 43 -34 43
-4 0 -24 16 -44 35 -40 39 -47 74 -21 96 8 7 22 25 30 41 20 38 3 75 -70 155
-73 80 -135 106 -251 106 -132 -1 -194 -28 -410 -182 -137 -98 -226 -105 -356
-28 -303 179 -621 315 -865 369 -141 31 -375 31 -488 0 -203 -56 -403 -176
-676 -407 -150 -127 -285 -203 -470 -264 -267 -88 -524 -95 -765 -21 -98 31
-248 110 -325 173 -140 114 -250 286 -286 447 -24 104 -24 282 -1 389 63 295
310 591 568 681 131 45 250 36 374 -28 111 -58 239 -191 300 -311 l18 -35 -28
18 c-63 42 -93 55 -151 70 -78 20 -134 20 -209 1 -172 -45 -283 -164 -320
-343 -40 -191 62 -390 242 -474 57 -27 79 -32 161 -34 206 -5 344 87 439 293
22 47 28 77 31 154 5 117 -17 217 -77 345 -164 349 -456 533 -747 469z m339
-487 c5 -17 -2 -29 -31 -52 -20 -17 -49 -42 -64 -57 -21 -20 -40 -28 -82 -31
l-56 -5 0 32 c0 23 10 40 38 67 51 49 89 67 143 68 40 0 48 -3 52 -22z m138
-95 c39 -15 59 -49 73 -124 6 -34 3 -39 -43 -82 -28 -26 -54 -47 -58 -47 -4 0
-42 11 -84 25 -76 26 -77 26 -88 70 -19 76 -15 89 41 140 57 51 73 53 159 18z
m180 0 c62 -53 99 -172 63 -207 -22 -23 -34 -20 -76 17 -31 27 -40 44 -55 110
-19 77 -19 77 1 91 28 20 30 20 67 -11z m-605 -112 c-9 -20 -19 -54 -24 -75
-4 -22 -14 -42 -21 -44 -21 -7 -8 84 20 141 19 38 25 44 32 31 6 -10 4 -29 -7
-53z m305 -162 c35 -12 69 -26 75 -31 6 -4 17 -35 24 -69 l13 -60 -34 -35
c-37 -39 -78 -64 -104 -64 -9 0 -38 9 -65 21 -52 22 -73 55 -86 137 -6 36 -3
41 41 80 26 23 53 42 59 42 7 0 41 -10 77 -21z m369 -52 c-6 -23 -20 -53 -31
-67 l-19 -25 15 37 c8 21 15 44 15 52 0 8 5 27 11 43 16 41 24 10 9 -40z
m-719 -10 c-8 -8 -11 -7 -11 4 0 20 13 34 18 19 3 -7 -1 -17 -7 -23z m135 -82
c26 -91 18 -118 -21 -72 -28 31 -45 85 -45 141 0 37 1 38 21 24 14 -9 29 -41
45 -93z m484 -49 c0 -32 -203 -138 -231 -120 -6 3 18 31 52 62 54 49 69 58
113 63 28 3 54 6 59 7 4 1 7 -4 7 -12z m3320 -531 c0 -8 -10 -20 -22 -26 -46
-25 -61 -74 -37 -122 8 -17 5 -16 -15 6 -35 38 -36 98 -1 132 27 28 75 34 75
10z"/>
</g>
</svg>
