<svg version="1.0" xmlns="http://www.w3.org/2000/svg"
 width="618.000000pt" height="616.000000pt" viewBox="0 0 618.000000 616.000000"
 preserveAspectRatio="xMidYMid meet">

<g transform="translate(0.000000,616.000000) scale(0.100000,-0.100000)"
fill="#ffffff" stroke="none">
<path d="M2776 6109 c-506 -53 -1018 -244 -1424 -532 -368 -260 -673 -594
-898 -981 -31 -54 -28 -53 61 12 120 89 291 152 414 152 159 0 318 -74 449
-209 232 -239 329 -589 220 -793 -86 -162 -296 -280 -473 -265 -117 9 -220 79
-272 186 -57 115 -25 282 70 367 53 49 123 80 143 64 25 -21 15 -39 -31 -61
-146 -69 -191 -268 -87 -389 56 -66 102 -85 208 -85 84 0 95 3 165 37 96 48
181 131 209 205 70 186 -42 495 -247 683 -267 245 -602 177 -885 -179 -66 -82
-149 -245 -171 -336 -32 -127 -39 -251 -22 -366 52 -350 301 -603 694 -706
208 -54 450 -41 686 39 198 66 321 136 485 272 278 232 470 348 655 397 102
27 297 36 403 20 266 -42 580 -167 932 -370 112 -64 117 -66 185 -66 83 1 113
14 254 117 121 88 175 116 265 135 152 32 277 -10 366 -123 67 -85 71 -110 30
-158 -42 -47 -36 -71 34 -131 77 -65 98 -144 57 -211 -33 -55 -86 -71 -266
-84 -263 -19 -294 -24 -327 -58 -43 -42 -42 -104 3 -169 228 -334 571 -605
894 -706 109 -34 254 -62 264 -51 16 16 99 217 141 339 76 221 127 458 151
705 17 170 6 572 -20 732 -55 340 -177 714 -314 958 -17 30 -37 69 -46 85 -47
95 -206 323 -319 457 -498 594 -1212 976 -1982 1063 -146 16 -516 19 -654 4z"/>
<path d="M76 3453 c-4 -15 -9 -145 -13 -288 -6 -287 6 -440 53 -675 26 -129
36 -168 86 -330 87 -278 251 -605 419 -834 l47 -64 99 40 c362 147 827 264
1301 327 79 11 146 21 148 24 3 2 -1 48 -7 101 -10 85 -9 102 6 142 19 50 41
68 205 159 58 32 107 62 108 67 2 4 10 8 17 8 11 0 85 73 85 84 0 18 -31 82
-63 131 -66 98 -271 348 -234 285 53 -91 117 -212 117 -221 0 -20 -120 -263
-163 -329 -59 -91 -76 -109 -127 -135 -47 -24 -181 -49 -315 -60 -268 -20
-311 -34 -400 -126 -38 -39 -77 -75 -86 -80 -27 -14 -67 6 -75 36 -8 33 18 71
125 179 95 97 120 107 327 136 227 31 270 54 327 180 75 164 81 331 18 465
-50 106 -63 211 -35 279 7 19 6 19 -23 -2 -103 -73 -343 -169 -533 -213 -132
-30 -360 -37 -500 -15 -420 67 -766 334 -883 684 -22 65 -25 70 -31 45z"/>
<path d="M4692 3157 c-31 -32 -37 -78 -18 -116 9 -17 18 -31 20 -31 2 0 1 20
-2 45 -4 42 -2 47 32 78 20 19 33 37 29 40 -13 14 -40 7 -61 -16z"/>
<path d="M3065 2806 c-89 -22 -152 -66 -196 -134 -53 -84 -38 -149 79 -330
132 -205 82 -288 -229 -382 -57 -18 -126 -38 -153 -47 -148 -45 -209 -97 -221
-188 -3 -31 -5 -59 -3 -61 3 -2 50 0 106 6 239 23 635 31 921 20 157 -6 289
-14 294 -17 6 -4 7 5 2 23 -17 59 -10 215 13 303 30 109 117 348 175 476 25
55 42 103 39 107 -13 12 -227 117 -302 146 -198 78 -401 109 -525 78z"/>
<path d="M4105 2427 l37 -55 -52 -64 c-67 -81 -189 -266 -228 -344 -17 -33
-38 -87 -47 -119 -17 -56 -17 -62 0 -112 10 -29 23 -58 30 -63 6 -5 69 -16
140 -25 548 -67 1036 -185 1428 -343 l98 -40 39 52 c77 103 189 291 177 297
-7 4 -32 10 -57 14 -252 39 -637 179 -895 327 -129 74 -305 196 -415 288 -52
43 -139 116 -193 160 l-98 82 36 -55z"/>
<path d="M2630 1433 c-208 -7 -639 -49 -910 -89 -271 -39 -689 -127 -883 -185
l-68 -20 20 -27 c39 -56 286 -295 389 -378 436 -349 898 -553 1462 -645 181
-30 582 -37 780 -15 497 57 934 216 1351 491 141 94 207 145 358 278 131 115
287 288 269 298 -32 17 -387 104 -598 145 -343 68 -791 122 -1195 144 -161 9
-751 11 -975 3z"/>
</g>
</svg>
